# xmcd
#
# Track frame offsets:
#	150
#	13467
#	25661
#	40666
#	56137
#	68844
#	81292
#	92820
#	104140
#	122591
#	134798
#	147026
#
# Disc length: 2170 seconds
#
# Revision: 0
# Processed by: cddbd v1.5.2PL0 Copyright (c) Steve Scherf et al.
# Submitted via: EasyCDDAExtractor 12.0.1.1
#
DISCID=ae08780c
DTITLE=Kirsty Lee Akers - Better Days
DYEAR=2009
DGENRE=Country
TTITLE0=Habit Of You
TTITLE1=Knocked Up
TTITLE2=I Don't Know What Love Is
TTITLE3=I Sleep At Night
TTITLE4=I Ain't Your White Picket Fence Girl
TTITLE5=I Know You Will
TTITLE6=Better Days
TTITLE7=I Get Even
TTITLE8=Too Far To Drive
TTITLE9=All The King's Horses
TTITLE10=How Long Am I Supposed To Wait For You?
TTITLE11=Let The Baby Sleep Through This
EXTD=
EXTT0=
EXTT1=
EXTT2=
EXTT3=
EXTT4=
EXTT5=
EXTT6=
EXTT7=
EXTT8=
EXTT9=
EXTT10=
EXTT11=
PLAYORDER=
